<svg xmlns="http://www.w3.org/2000/svg" style="display:none">
  <symbol id="menu-icon" viewBox="0 0 24 24">
    <path fill="currentColor" d="M3 6h18v2H3zM3 11h18v2H3zM3 16h18v2H3z" />
  </symbol>

  <symbol id="facebook-icon" viewBox="0 0 24 24">
    <path fill="currentColor" d="M13.5 22v-8h2.7l.4-3.2h-3.1V8.7c0-.9.3-1.6 1.6-1.6h1.7V4.2c-.3 0-1.3-.1-2.4-.1-2.4 0-4 1.5-4 4.1v2.6H7.7V14h2.6v8h3.2z" />
  </symbol>

  <symbol id="mail-icon" viewBox="0 0 24 24">
    <path fill="none" stroke="currentColor" stroke-width="2" stroke-linecap="round" stroke-linejoin="round" d="M4 6h16v12H4z" />
    <path fill="none" stroke="currentColor" stroke-width="2" stroke-linecap="round" stroke-linejoin="round" d="M4 7l8 6 8-6" />
  </symbol>

  <symbol id="heart-icon" viewBox="0 0 24 24">
    <path fill="currentColor" d="M12 21s-7.5-4.6-9.6-9.1C1 8.6 3.1 5 6.5 5c2 0 3.5 1 4.5 2.5.2.3.7.3.9 0C12.9 6 14.5 5 16.5 5 19.9 5 22 8.6 20.6 11.9 18.5 16.4 12 21 12 21z" />
  </symbol>

</svg>
